<?xml version="1.0" encoding="utf-8"?>
<!-- Generator: Adobe Illustrator 19.0.0, SVG Export Plug-In . SVG Version: 6.00 Build 0)  -->
<svg version="1.1" id="图层_1" xmlns="http://www.w3.org/2000/svg" xmlns:xlink="http://www.w3.org/1999/xlink" x="0px" y="0px"
	 viewBox="0 0 132 54" style="enable-background:new 0 0 132 54;" xml:space="preserve">
<style type="text/css">
	.st0{fill:#73CBF0;}
	.st1{fill:#166085;}
</style>
<g id="XMLID_2_">
	<path id="XMLID_17_" class="st0" d="M107.1,15.7H106v-1.1c0-0.5-0.4-1-1-1c-0.6,0-1,0.4-1,1v1.1h-1.1c-0.6,0-1,0.4-1,1
		c0,0.5,0.4,1,1,1h1.1v1.1c0,0.6,0.4,1,1,1c0.6,0,1-0.4,1-1v-1.1h1.1c0.6,0,1-0.4,1-1C108.1,16.1,107.7,15.7,107.1,15.7"/>
	<path id="XMLID_16_" class="st1" d="M131,36.4h-23.5V22.5c0-1.1-0.9-2-2-2h-2.4c-0.5,0-1,0.4-1,1c0,0.6,0.4,1,1,1h2v13.8
		c0,1.1,0.9,2,2,2H131c0.6,0,1-0.4,1-1C132,36.8,131.6,36.4,131,36.4"/>
	<path id="XMLID_15_" class="st1" d="M69.5,15.7H46.9c-1.1,0-2,0.9-2,2v6.9v5v6.9c0,1.1,0.9,2,2,2h22.6c0.5,0,1-0.4,1-1
		c0-0.6-0.4-1-1-1H47.4v-6.9v-5v-6.9h22.1c0.5,0,1-0.4,1-1C70.5,16.1,70.1,15.7,69.5,15.7"/>
	<path id="XMLID_9_" class="st1" d="M130.8,35L130.8,35c0.7,0,1.2-0.5,1.2-1.1V21c0-1-0.8-1.8-1.8-1.8l1.3-1.1
		c0.3-0.2,0.4-0.5,0.5-0.8c0.1-0.9-0.5-1.6-1.3-1.6h-19.9c-0.5,0-0.9,0.3-1,0.8c-0.1,0.6,0.4,1.2,1,1.2h17.6l-1.8,1.5h-15
		c-1,0-1.8,0.8-1.8,1.8v12.8c0,0.6,0.5,1.1,1.1,1.1c0.6,0,1.1-0.5,1.1-1.1v-2.2h7.3v2.2c0,0.6,0.5,1.1,1.1,1.1h0.1
		c0.6,0,1.1-0.5,1.1-1.1v-2.2h8v2.2C129.6,34.4,130.1,35,130.8,35 M119.3,29.6H112v-3h7.3V29.6z M119.3,24.6H112v-3.4h7.3V24.6z
		 M121.6,21.2h8v3.4h-8V21.2z M121.6,26.6h8v3h-8V26.6z"/>
	<path id="XMLID_8_" class="st1" d="M69.5,26.1h-8.3v-3.2h8.3c0.5,0,1-0.4,1.1-0.9c0-0.6-0.4-1-1-1H52.3v-0.4c0-0.7-0.6-1.3-1.3-1.3
		s-1.3,0.6-1.3,1.3v3.3c0,0.7,0.6,1.3,1.3,1.3s1.3-0.6,1.3-1.3v-0.9h6.1v3.2h-7.6c-0.5,0-0.9,0.3-1,0.8c-0.1,0.6,0.4,1.2,1,1.2h6.4
		l-6.9,5c-0.6,0.4-0.6,1.2-0.1,1.7l0,0c0.4,0.4,1,0.4,1.5,0.1l8.2-6l8.2,6c0.5,0.3,1.1,0.3,1.5-0.1l0,0c0.5-0.5,0.4-1.3-0.1-1.7
		l-6.9-5h7.2c0.6,0,1-0.5,1-1C70.5,26.5,70,26.1,69.5,26.1"/>
	<path id="XMLID_4_" class="st1" d="M97.8,31.1c1.1,0,2-0.9,2-2v-8c0-1.1-0.9-2-2-2H83.3v-1.5h15.4c0.5,0,0.9-0.3,1-0.8
		c0.1-0.6-0.4-1.2-1-1.2H83.3v-0.4c0-0.7-0.6-1.2-1.2-1.2c-0.7,0-1.2,0.6-1.2,1.2v3.9h-5.6c-1.1,0-2,0.9-2,2v8c0,1.1,0.9,2,2,2h10
		v2.1h-11c-0.6,0-1,0.4-1,1s0.4,1,1,1h11v1.9c0,0.6,0.5,1.2,1.1,1.3c0.7,0,1.3-0.5,1.3-1.2v-1.9h11.2c0.6,0,1-0.4,1-1s-0.4-1-1-1
		H87.6v-2.1H97.8z M75.7,21.2h21.6v3.4H75.7V21.2z M75.7,26.6h21.6v2.6H75.7V26.6z"/>
	<g id="XMLID_1_">
		<path id="XMLID_21_" class="st0" d="M19.7,41c0,0-6.6-6.1-6.7-15c-0.1-13.3,8.8-16.9,8.8-16.9c-5-0.2-11.2,2.5-14.8,7.4
			C2.2,22.9,4.4,31,4.4,31L19.7,41z"/>
		<path id="XMLID_20_" class="st1" d="M5.7,18.5c0,0-3.4,7.8,8.3,13.4c2.6,1.2,4.7,2.3,6.3,3.2c3.4,1.8,4.6,6.3,1.4,8.8
			c-2.5,2-6.7,1.1-10-1C4.9,38.6,0.3,28.2,5.7,18.5"/>
		<path id="XMLID_19_" class="st0" d="M23.8,14c0,0,6.6,6.1,6.7,15c0.1,13.3-8.8,16.9-8.8,16.9c5,0.2,11.2-2.5,14.8-7.4
			c4.8-6.5,2.6-14.6,2.6-14.6L23.8,14z"/>
		<path id="XMLID_18_" class="st1" d="M37.8,36.5c0,0,3.4-7.8-8.3-13.4c-2.6-1.2-4.7-2.3-6.3-3.2c-3.4-1.8-4.6-6.3-1.4-8.8
			c2.5-1.9,6.7-1.1,10,1C38.6,16.4,43.1,26.8,37.8,36.5"/>
		<path id="XMLID_3_" class="st1" d="M24.9,22.2h-7.6c-0.7,0-1.3,0.6-1.3,1.3c0,0.7,0.6,1.3,1.3,1.3H19c1.3,0,1.8,1.7,0.8,2.4
			l-3.1,2.3C16.3,29.9,16,30.4,16,31c0,1,0.8,1.8,1.8,1.8h7.6c0.7,0,1.3-0.6,1.3-1.3c0-0.7-0.6-1.3-1.3-1.3h-1.6
			c-1.3,0-1.8-1.7-0.8-2.4l3.1-2.3c0.5-0.3,0.7-0.9,0.7-1.4C26.7,23,25.9,22.2,24.9,22.2"/>
	</g>
</g>
</svg>
